# xmcd CD database file
#
# Track frame offsets:
#	150
#	20487
#	38198
#	54120
#	77084
#	98014
#	110924
#	127380
#	140791
#
# Disc length: 2112 seconds
#
# Revision: 0
# Processed by: cddbd v1.4PL0 Copyright (c) Steve Scherf et al.
# Submitted via: CDex 1.40Release
#
DISCID=7d083e09
DTITLE=Smoken - Spoonful Of Stars
DYEAR=1900
DGENRE=Blues
TTITLE0=Are U Still Thinking 
TTITLE1=Mr. Memphis
TTITLE2=Busted, Broken, Blue
TTITLE3=Once Upon A Time
TTITLE4=Lazy
TTITLE5=Ready To Fly
TTITLE6=See What U Got
TTITLE7=Groove It To the Ground
TTITLE8=Rumor Goin Round
EXTD=ID3G: 0
EXTT0=
EXTT1=
EXTT2=
EXTT3=
EXTT4=
EXTT5=
EXTT6=
EXTT7=
EXTT8=
PLAYORDER=
